<svg width="310" height="64" viewBox="0 0 310 64" fill="none" xmlns="http://www.w3.org/2000/svg">
<path d="M108.844 20.1172V33.5703H115.57C116.492 33.5703 117.359 33.3984 118.172 33.0547C118.984 32.6953 119.695 32.2109 120.305 31.6016C120.914 30.9922 121.391 30.2812 121.734 29.4688C122.094 28.6406 122.273 27.7656 122.273 26.8438C122.273 25.9219 122.094 25.0547 121.734 24.2422C121.391 23.4141 120.914 22.6953 120.305 22.0859C119.695 21.4766 118.984 21 118.172 20.6562C117.359 20.2969 116.492 20.1172 115.57 20.1172H108.844ZM108.844 47H102.117V13.3906H115.57C116.805 13.3906 117.992 13.5547 119.133 13.8828C120.273 14.1953 121.336 14.6484 122.32 15.2422C123.32 15.8203 124.227 16.5234 125.039 17.3516C125.867 18.1641 126.57 19.0703 127.148 20.0703C127.742 21.0703 128.195 22.1406 128.508 23.2812C128.836 24.4219 129 25.6094 129 26.8438C129 28.6875 128.648 30.4297 127.945 32.0703C127.242 33.6953 126.281 35.1172 125.062 36.3359C123.844 37.5547 122.414 38.5156 120.773 39.2188C119.148 39.9219 117.414 40.2734 115.57 40.2734H108.844V47ZM156.586 47H155.039L152.555 43.5547C151.945 44.1016 151.297 44.6172 150.609 45.1016C149.938 45.5703 149.227 45.9844 148.477 46.3438C147.727 46.6875 146.953 46.9609 146.156 47.1641C145.375 47.3672 144.578 47.4688 143.766 47.4688C142 47.4688 140.336 47.1719 138.773 46.5781C137.227 45.9844 135.867 45.125 134.695 44C133.539 42.8594 132.625 41.4688 131.953 39.8281C131.281 38.1875 130.945 36.3203 130.945 34.2266C130.945 32.2734 131.281 30.4844 131.953 28.8594C132.625 27.2188 133.539 25.8125 134.695 24.6406C135.867 23.4688 137.227 22.5625 138.773 21.9219C140.336 21.2656 142 20.9375 143.766 20.9375C144.578 20.9375 145.383 21.0391 146.18 21.2422C146.977 21.4453 147.75 21.7266 148.5 22.0859C149.25 22.4453 149.961 22.8672 150.633 23.3516C151.32 23.8359 151.961 24.3594 152.555 24.9219L155.039 21.9453H156.586V47ZM150.141 34.2266C150.141 33.3516 149.969 32.5078 149.625 31.6953C149.297 30.8672 148.844 30.1406 148.266 29.5156C147.688 28.875 147.008 28.3672 146.227 27.9922C145.461 27.6016 144.641 27.4062 143.766 27.4062C142.891 27.4062 142.062 27.5547 141.281 27.8516C140.516 28.1484 139.844 28.5859 139.266 29.1641C138.703 29.7422 138.258 30.4609 137.93 31.3203C137.602 32.1641 137.438 33.1328 137.438 34.2266C137.438 35.3203 137.602 36.2969 137.93 37.1562C138.258 38 138.703 38.7109 139.266 39.2891C139.844 39.8672 140.516 40.3047 141.281 40.6016C142.062 40.8984 142.891 41.0469 143.766 41.0469C144.641 41.0469 145.461 40.8594 146.227 40.4844C147.008 40.0938 147.688 39.5859 148.266 38.9609C148.844 38.3203 149.297 37.5938 149.625 36.7812C149.969 35.9531 150.141 35.1016 150.141 34.2266ZM167.883 47H161.484V21.8984H163.031L165.141 24.875C166.172 23.9375 167.344 23.2188 168.656 22.7188C169.969 22.2031 171.328 21.9453 172.734 21.9453H178.383V28.3203H172.734C172.062 28.3203 171.43 28.4453 170.836 28.6953C170.242 28.9453 169.727 29.2891 169.289 29.7266C168.852 30.1641 168.508 30.6797 168.258 31.2734C168.008 31.8672 167.883 32.5 167.883 33.1719V47ZM194.859 47H180.234V40.625H194.859C195.297 40.625 195.672 40.4688 195.984 40.1562C196.297 39.8438 196.453 39.4688 196.453 39.0312C196.453 38.5781 196.297 38.2812 195.984 38.1406C195.672 38 195.297 37.9297 194.859 37.9297H188.203C187.094 37.9297 186.055 37.7188 185.086 37.2969C184.117 36.875 183.273 36.3047 182.555 35.5859C181.836 34.8516 181.266 34 180.844 33.0312C180.438 32.0625 180.234 31.0234 180.234 29.9141C180.234 28.8047 180.438 27.7656 180.844 26.7969C181.266 25.8281 181.836 24.9844 182.555 24.2656C183.273 23.5469 184.117 22.9844 185.086 22.5781C186.055 22.1562 187.094 21.9453 188.203 21.9453H201.164V28.3203H188.203C187.766 28.3203 187.391 28.4766 187.078 28.7891C186.766 29.1016 186.609 29.4766 186.609 29.9141C186.609 30.3672 186.766 30.7578 187.078 31.0859C187.391 31.3984 187.766 31.5547 188.203 31.5547H194.859C195.953 31.5547 196.984 31.7422 197.953 32.1172C198.922 32.4766 199.766 32.9844 200.484 33.6406C201.203 34.2969 201.773 35.0859 202.195 36.0078C202.617 36.9297 202.828 37.9375 202.828 39.0312C202.828 40.1406 202.617 41.1797 202.195 42.1484C201.773 43.1016 201.203 43.9453 200.484 44.6797C199.766 45.3984 198.922 45.9688 197.953 46.3906C196.984 46.7969 195.953 47 194.859 47ZM216.234 40.8594C216.484 40.9375 216.734 40.9922 216.984 41.0234C217.234 41.0391 217.484 41.0469 217.734 41.0469C218.359 41.0469 218.961 40.9609 219.539 40.7891C220.117 40.6172 220.656 40.375 221.156 40.0625C221.672 39.7344 222.125 39.3438 222.516 38.8906C222.922 38.4219 223.25 37.9062 223.5 37.3438L228.188 42.0547C227.594 42.8984 226.906 43.6562 226.125 44.3281C225.359 45 224.523 45.5703 223.617 46.0391C222.727 46.5078 221.781 46.8594 220.781 47.0938C219.797 47.3438 218.781 47.4688 217.734 47.4688C215.969 47.4688 214.305 47.1406 212.742 46.4844C211.195 45.8281 209.836 44.9141 208.664 43.7422C207.508 42.5703 206.594 41.1797 205.922 39.5703C205.25 37.9453 204.914 36.1641 204.914 34.2266C204.914 32.2422 205.25 30.4297 205.922 28.7891C206.594 27.1484 207.508 25.75 208.664 24.5938C209.836 23.4375 211.195 22.5391 212.742 21.8984C214.305 21.2578 215.969 20.9375 217.734 20.9375C218.781 20.9375 219.805 21.0625 220.805 21.3125C221.805 21.5625 222.75 21.9219 223.641 22.3906C224.547 22.8594 225.391 23.4375 226.172 24.125C226.953 24.7969 227.641 25.5547 228.234 26.3984L216.234 40.8594ZM219.516 27.6641C219.219 27.5547 218.922 27.4844 218.625 27.4531C218.344 27.4219 218.047 27.4062 217.734 27.4062C216.859 27.4062 216.031 27.5703 215.25 27.8984C214.484 28.2109 213.812 28.6641 213.234 29.2578C212.672 29.8516 212.227 30.5703 211.898 31.4141C211.57 32.2422 211.406 33.1797 211.406 34.2266C211.406 34.4609 211.414 34.7266 211.43 35.0234C211.461 35.3203 211.5 35.625 211.547 35.9375C211.609 36.2344 211.68 36.5234 211.758 36.8047C211.836 37.0859 211.938 37.3359 212.062 37.5547L219.516 27.6641Z" fill="url(#paint0_linear_5_11)"/>
<path d="M258.984 43.5547C257.422 44.8984 255.672 45.9297 253.734 46.6484C251.797 47.3672 249.789 47.7266 247.711 47.7266C246.117 47.7266 244.578 47.5156 243.094 47.0938C241.625 46.6875 240.242 46.1094 238.945 45.3594C237.664 44.5938 236.492 43.6797 235.43 42.6172C234.367 41.5547 233.453 40.3828 232.688 39.1016C231.938 37.8047 231.352 36.4219 230.93 34.9531C230.523 33.4688 230.32 31.9297 230.32 30.3359C230.32 28.7422 230.523 27.2031 230.93 25.7188C231.352 24.2344 231.938 22.8516 232.688 21.5703C233.453 20.2734 234.367 19.0938 235.43 18.0312C236.492 16.9688 237.664 16.0625 238.945 15.3125C240.242 14.5469 241.625 13.9609 243.094 13.5547C244.578 13.1328 246.117 12.9219 247.711 12.9219C249.789 12.9219 251.797 13.2812 253.734 14C255.672 14.7031 257.422 15.7344 258.984 17.0938L255.422 22.9531C254.438 21.8906 253.273 21.0781 251.93 20.5156C250.586 19.9375 249.18 19.6484 247.711 19.6484C246.227 19.6484 244.836 19.9297 243.539 20.4922C242.242 21.0547 241.109 21.8203 240.141 22.7891C239.172 23.7422 238.406 24.875 237.844 26.1875C237.281 27.4844 237 28.8672 237 30.3359C237 31.8047 237.281 33.1875 237.844 34.4844C238.406 35.7656 239.172 36.8906 240.141 37.8594C241.109 38.8281 242.242 39.5938 243.539 40.1562C244.836 40.7188 246.227 41 247.711 41C249.18 41 250.586 40.7188 251.93 40.1562C253.273 39.5781 254.438 38.7578 255.422 37.6953L258.984 43.5547ZM285.633 47H284.086L281.602 43.5547C280.992 44.1016 280.344 44.6172 279.656 45.1016C278.984 45.5703 278.273 45.9844 277.523 46.3438C276.773 46.6875 276 46.9609 275.203 47.1641C274.422 47.3672 273.625 47.4688 272.812 47.4688C271.047 47.4688 269.383 47.1719 267.82 46.5781C266.273 45.9844 264.914 45.125 263.742 44C262.586 42.8594 261.672 41.4688 261 39.8281C260.328 38.1875 259.992 36.3203 259.992 34.2266C259.992 32.2734 260.328 30.4844 261 28.8594C261.672 27.2188 262.586 25.8125 263.742 24.6406C264.914 23.4688 266.273 22.5625 267.82 21.9219C269.383 21.2656 271.047 20.9375 272.812 20.9375C273.625 20.9375 274.43 21.0391 275.227 21.2422C276.023 21.4453 276.797 21.7266 277.547 22.0859C278.297 22.4453 279.008 22.8672 279.68 23.3516C280.367 23.8359 281.008 24.3594 281.602 24.9219L284.086 21.9453H285.633V47ZM279.188 34.2266C279.188 33.3516 279.016 32.5078 278.672 31.6953C278.344 30.8672 277.891 30.1406 277.312 29.5156C276.734 28.875 276.055 28.3672 275.273 27.9922C274.508 27.6016 273.688 27.4062 272.812 27.4062C271.938 27.4062 271.109 27.5547 270.328 27.8516C269.562 28.1484 268.891 28.5859 268.312 29.1641C267.75 29.7422 267.305 30.4609 266.977 31.3203C266.648 32.1641 266.484 33.1328 266.484 34.2266C266.484 35.3203 266.648 36.2969 266.977 37.1562C267.305 38 267.75 38.7109 268.312 39.2891C268.891 39.8672 269.562 40.3047 270.328 40.6016C271.109 40.8984 271.938 41.0469 272.812 41.0469C273.688 41.0469 274.508 40.8594 275.273 40.4844C276.055 40.0938 276.734 39.5859 277.312 38.9609C277.891 38.3203 278.344 37.5938 278.672 36.7812C279.016 35.9531 279.188 35.1016 279.188 34.2266ZM303.117 47C301.57 47 300.117 46.7109 298.758 46.1328C297.398 45.5391 296.203 44.7344 295.172 43.7188C294.156 42.6875 293.352 41.4922 292.758 40.1328C292.18 38.7734 291.891 37.3203 291.891 35.7734V28.3203H288.773V21.9453H291.891V11.9141H298.266V21.9453H307.969V28.3203H298.266V35.7734C298.266 36.4453 298.391 37.0781 298.641 37.6719C298.891 38.25 299.234 38.7578 299.672 39.1953C300.109 39.6328 300.625 39.9844 301.219 40.25C301.812 40.5 302.445 40.625 303.117 40.625H307.969V47H303.117Z" fill="url(#paint1_linear_5_11)"/>
<path d="M25.1371 0L0 37.3811C20.0214 71.9464 61.237 71.3469 81.205 39.5846L59.5204 0L51.3322 21.2304H32.3605L25.1371 0ZM23.6516 34.1107C27.4738 33.9771 31.8146 36.0961 35.1702 44.0488C21.6535 49.7517 14.6812 38.1751 14.6812 38.1751C14.6812 38.1751 17.8865 35.0995 22.0498 34.2956C22.5781 34.1919 23.1136 34.1303 23.6516 34.1107ZM57.5537 34.1107C58.0918 34.1302 58.6275 34.192 59.1559 34.2956C63.3192 35.0995 66.5239 38.1751 66.5239 38.1751C66.5239 38.1751 59.5525 49.7517 46.0359 44.0491C49.3911 36.0961 53.7315 33.9778 57.5537 34.1107Z" fill="url(#paint2_linear_5_11)"/>
<defs>
<linearGradient id="paint0_linear_5_11" x1="99" y1="30" x2="310" y2="60" gradientUnits="userSpaceOnUse">
<stop offset="0.00769728" stop-color="white"/>
<stop offset="0.693006" stop-color="#DEDEDE"/>
</linearGradient>
<linearGradient id="paint1_linear_5_11" x1="99" y1="30" x2="310" y2="30" gradientUnits="userSpaceOnUse">
<stop stop-color="#313131"/>
<stop offset="0.512623" stop-color="#D20C0C"/>
<stop offset="1" stop-color="#E10909"/>
</linearGradient>
<linearGradient id="paint2_linear_5_11" x1="19" y1="-9" x2="81" y2="70" gradientUnits="userSpaceOnUse">
<stop offset="0.0682314" stop-color="#FF0606"/>
<stop offset="1" stop-color="#B60C0C"/>
</linearGradient>
</defs>
</svg>
