<svg width="297" height="62" viewBox="0 0 297 62" fill="none" xmlns="http://www.w3.org/2000/svg">
<path d="M95.536 38.104V33.4H103.12C104.944 33.4 106.432 33.016 107.584 32.248C108.768 31.48 109.632 30.456 110.176 29.176C110.72 27.864 110.992 26.424 110.992 24.856C110.992 22.776 110.432 21.32 109.312 20.488C108.224 19.624 106.768 19.192 104.944 19.192H95.536V14.44H105.04C108.592 14.44 111.408 15.32 113.488 17.08C115.6 18.808 116.656 21.384 116.656 24.808C116.656 26.472 116.384 28.104 115.84 29.704C115.328 31.304 114.512 32.744 113.392 34.024C112.304 35.272 110.912 36.264 109.216 37C107.52 37.736 105.504 38.104 103.168 38.104H95.536ZM92.368 49V14.44H97.936V49H92.368ZM131.546 49.576C127.706 49.576 124.81 48.904 122.858 47.56C120.906 46.216 119.93 44.12 119.93 41.272C119.93 39.416 120.394 37.88 121.322 36.664C122.25 35.448 123.562 34.536 125.258 33.928C126.954 33.32 128.938 33.016 131.21 33.016C132.842 33.016 134.218 33.16 135.338 33.448C136.458 33.704 137.45 33.96 138.314 34.216V38.008C137.546 37.752 136.57 37.528 135.386 37.336C134.234 37.112 133.146 37 132.122 37C129.754 37 127.978 37.32 126.794 37.96C125.642 38.568 125.066 39.672 125.066 41.272C125.066 42.776 125.626 43.864 126.746 44.536C127.866 45.176 129.482 45.496 131.594 45.496C132.81 45.496 133.978 45.4 135.098 45.208C136.218 44.984 137.258 44.664 138.218 44.248L137.306 45.832C137.21 45.512 137.13 45.176 137.066 44.824C137.002 44.472 136.938 44.12 136.874 43.768C136.842 43.384 136.81 42.968 136.778 42.52C136.778 42.072 136.778 41.56 136.778 40.984V33.208C136.778 31.352 136.506 29.96 135.962 29.032C135.45 28.072 134.666 27.448 133.61 27.16C132.554 26.84 131.226 26.68 129.626 26.68C128.346 26.68 127.066 26.84 125.786 27.16C124.506 27.448 123.482 27.768 122.714 28.12H122.282V23.608C123.434 23.16 124.714 22.824 126.122 22.6C127.562 22.376 128.954 22.264 130.298 22.264C131.994 22.264 133.546 22.408 134.954 22.696C136.394 22.984 137.642 23.528 138.698 24.328C139.786 25.096 140.618 26.2 141.194 27.64C141.802 29.048 142.106 30.904 142.106 33.208V39.4C142.106 40.04 142.106 40.872 142.106 41.896C142.138 42.92 142.186 43.928 142.25 44.92C142.314 45.88 142.41 46.648 142.538 47.224L142.394 47.608C141.338 47.992 140.17 48.344 138.89 48.664C137.61 48.952 136.33 49.176 135.05 49.336C133.77 49.496 132.602 49.576 131.546 49.576ZM150.446 49V32.392C150.446 31.752 150.43 30.92 150.398 29.896C150.398 28.872 150.366 27.88 150.302 26.92C150.27 25.928 150.19 25.144 150.062 24.568L150.158 24.184C151.022 23.864 152.062 23.592 153.278 23.368C154.494 23.112 155.742 22.92 157.022 22.792C158.302 22.632 159.454 22.552 160.478 22.552C161.182 22.552 161.806 22.568 162.35 22.6C162.926 22.632 163.438 22.696 163.886 22.792V27.304H163.502C163.054 27.208 162.526 27.144 161.918 27.112C161.342 27.08 160.798 27.064 160.286 27.064C159.294 27.064 158.27 27.144 157.214 27.304C156.158 27.464 155.246 27.64 154.478 27.832L155.438 26.488C155.694 27.448 155.822 28.824 155.822 30.616V49H150.446ZM167.512 43.192H167.896C169.048 43.704 170.376 44.136 171.88 44.488C173.384 44.808 174.872 44.968 176.344 44.968C176.856 44.968 177.448 44.952 178.12 44.92C178.824 44.856 179.528 44.728 180.232 44.536C180.936 44.312 181.512 43.96 181.96 43.48C182.44 42.968 182.68 42.28 182.68 41.416C182.68 40.36 182.248 39.624 181.384 39.208C180.552 38.76 179.336 38.408 177.736 38.152L175.48 37.768C172.824 37.32 170.824 36.552 169.48 35.464C168.136 34.344 167.464 32.744 167.464 30.664C167.464 29.192 167.864 27.832 168.664 26.584C169.464 25.336 170.728 24.344 172.456 23.608C174.184 22.84 176.488 22.456 179.368 22.456C180.648 22.456 181.88 22.552 183.064 22.744C184.248 22.936 185.272 23.176 186.136 23.464V28.072H185.752C184.632 27.656 183.56 27.352 182.536 27.16C181.512 26.968 180.392 26.872 179.176 26.872C177.128 26.872 175.528 27.144 174.376 27.688C173.224 28.232 172.648 29.16 172.648 30.472C172.648 31.464 173.064 32.184 173.896 32.632C174.76 33.048 175.96 33.384 177.496 33.64L179.752 34.024C181.256 34.248 182.616 34.648 183.832 35.224C185.048 35.8 186.024 36.584 186.76 37.576C187.496 38.568 187.864 39.816 187.864 41.32C187.864 43.976 186.888 45.992 184.936 47.368C183.016 48.712 180.072 49.384 176.104 49.384C174.504 49.384 172.968 49.256 171.496 49C170.024 48.744 168.696 48.424 167.512 48.04V43.192ZM206.62 49.432C204.22 49.432 202.092 49.144 200.236 48.568C198.412 47.992 196.876 47.144 195.628 46.024C194.38 44.872 193.436 43.448 192.796 41.752C192.188 40.056 191.884 38.088 191.884 35.848C191.884 33.064 192.396 30.664 193.42 28.648C194.444 26.6 195.884 25.032 197.74 23.944C199.596 22.824 201.788 22.264 204.316 22.264C207.164 22.264 209.468 22.856 211.228 24.04C212.988 25.192 214.252 26.824 215.02 28.936C215.82 31.016 216.156 33.432 216.028 36.184L215.98 37.624H195.484V33.688H210.604V33.304C210.604 31.096 210.076 29.432 209.02 28.312C207.964 27.16 206.38 26.584 204.268 26.584C203.02 26.584 201.868 26.856 200.812 27.4C199.756 27.944 198.908 28.872 198.268 30.184C197.66 31.464 197.356 33.208 197.356 35.416V36.04C197.356 38.312 197.756 40.104 198.556 41.416C199.388 42.696 200.524 43.608 201.964 44.152C203.436 44.696 205.1 44.968 206.956 44.968C208.556 44.968 209.932 44.824 211.084 44.536C212.268 44.216 213.196 43.864 213.868 43.48H214.3V48.04C213.468 48.424 212.412 48.744 211.132 49C209.884 49.288 208.38 49.432 206.62 49.432ZM220.997 31.72C220.997 28.136 221.685 25.016 223.061 22.36C224.437 19.672 226.453 17.592 229.109 16.12C231.765 14.616 235.013 13.864 238.853 13.864C240.485 13.864 241.941 14.008 243.221 14.296C244.501 14.552 245.589 14.904 246.485 15.352V20.44H246.053C245.157 19.896 244.101 19.496 242.885 19.24C241.669 18.952 240.357 18.808 238.949 18.808C236.421 18.808 234.229 19.288 232.373 20.248C230.549 21.208 229.141 22.648 228.149 24.568C227.189 26.488 226.709 28.872 226.709 31.72C226.709 34.568 227.189 36.952 228.149 38.872C229.141 40.792 230.549 42.232 232.373 43.192C234.229 44.152 236.421 44.632 238.949 44.632C240.357 44.632 241.669 44.504 242.885 44.248C244.101 43.96 245.157 43.544 246.053 43H246.485V48.088C245.589 48.536 244.501 48.888 243.221 49.144C241.941 49.432 240.485 49.576 238.853 49.576C235.013 49.576 231.765 48.872 229.109 47.464C226.453 46.024 224.437 43.976 223.061 41.32C221.685 38.632 220.997 35.432 220.997 31.72ZM263.452 49.576C259.612 49.576 256.716 48.904 254.764 47.56C252.812 46.216 251.836 44.12 251.836 41.272C251.836 39.416 252.3 37.88 253.228 36.664C254.156 35.448 255.468 34.536 257.164 33.928C258.86 33.32 260.844 33.016 263.116 33.016C264.748 33.016 266.124 33.16 267.244 33.448C268.364 33.704 269.356 33.96 270.22 34.216V38.008C269.452 37.752 268.476 37.528 267.292 37.336C266.14 37.112 265.052 37 264.028 37C261.66 37 259.884 37.32 258.7 37.96C257.548 38.568 256.972 39.672 256.972 41.272C256.972 42.776 257.532 43.864 258.652 44.536C259.772 45.176 261.388 45.496 263.5 45.496C264.716 45.496 265.884 45.4 267.004 45.208C268.124 44.984 269.164 44.664 270.124 44.248L269.212 45.832C269.116 45.512 269.036 45.176 268.972 44.824C268.908 44.472 268.844 44.12 268.78 43.768C268.748 43.384 268.716 42.968 268.684 42.52C268.684 42.072 268.684 41.56 268.684 40.984V33.208C268.684 31.352 268.412 29.96 267.868 29.032C267.356 28.072 266.572 27.448 265.516 27.16C264.46 26.84 263.132 26.68 261.532 26.68C260.252 26.68 258.972 26.84 257.692 27.16C256.412 27.448 255.388 27.768 254.62 28.12H254.188V23.608C255.34 23.16 256.62 22.824 258.028 22.6C259.468 22.376 260.86 22.264 262.204 22.264C263.9 22.264 265.452 22.408 266.86 22.696C268.3 22.984 269.548 23.528 270.604 24.328C271.692 25.096 272.524 26.2 273.1 27.64C273.708 29.048 274.012 30.904 274.012 33.208V39.4C274.012 40.04 274.012 40.872 274.012 41.896C274.044 42.92 274.092 43.928 274.156 44.92C274.22 45.88 274.316 46.648 274.444 47.224L274.3 47.608C273.244 47.992 272.076 48.344 270.796 48.664C269.516 48.952 268.236 49.176 266.956 49.336C265.676 49.496 264.508 49.576 263.452 49.576ZM292.017 49.384C289.777 49.384 287.937 49.032 286.497 48.328C285.057 47.624 283.985 46.616 283.281 45.304C282.577 43.96 282.225 42.328 282.225 40.408V15.88H287.601V39.928C287.601 41.688 287.985 42.952 288.753 43.72C289.553 44.488 290.801 44.872 292.497 44.872C293.137 44.872 293.761 44.808 294.369 44.68C295.009 44.52 295.553 44.344 296.001 44.152H296.433V48.568C295.889 48.792 295.249 48.984 294.513 49.144C293.777 49.304 292.945 49.384 292.017 49.384ZM278.145 27.352V22.84H294.945V27.352H278.145Z" fill="#313131"/>
<path d="M12.7112 16.4824L30.9294 42.7351L35.7403 8.38549L0 4.71199L12.7112 16.4824Z" fill="#313131"/>
<path d="M75.2888 16.4824L57.0706 42.7351L52.2597 8.38549L88 4.71199L75.2888 16.4824Z" fill="#313131"/>
<ellipse cx="44" cy="31" rx="30" ry="31" fill="#313131"/>
<path d="M37.3173 42.5556C28.6364 42.2593 24.8221 38.7284 24 37C24 40.8519 29.2611 45.2716 31.8917 47C37.3173 45.642 45.9981 42.8519 37.3173 42.5556Z" fill="#FF0000"/>
<path d="M51.6827 42.5556C60.3636 42.2593 64.1779 38.7284 65 37C65 40.8519 59.7389 45.2716 57.1083 47C51.6827 45.642 43.0019 42.8519 51.6827 42.5556Z" fill="#FF0000"/>
</svg>
