<svg width="82" height="64" viewBox="0 0 82 64" fill="none" xmlns="http://www.w3.org/2000/svg">
<path d="M25.1371 0L0 37.3811C20.0214 71.9464 61.237 71.3469 81.205 39.5846L59.5204 0L51.3322 21.2304H32.3605L25.1371 0ZM23.6516 34.1107C27.4738 33.9771 31.8146 36.0961 35.1702 44.0488C21.6535 49.7517 14.6812 38.1751 14.6812 38.1751C14.6812 38.1751 17.8865 35.0995 22.0498 34.2956C22.5781 34.1919 23.1136 34.1303 23.6516 34.1107ZM57.5537 34.1107C58.0918 34.1302 58.6275 34.192 59.1559 34.2956C63.3192 35.0995 66.5239 38.1751 66.5239 38.1751C66.5239 38.1751 59.5525 49.7517 46.0359 44.0491C49.3911 36.0961 53.7315 33.9778 57.5537 34.1107Z" fill="url(#paint0_linear_5_15)"/>
<defs>
<linearGradient id="paint0_linear_5_15" x1="19" y1="-9" x2="81" y2="70" gradientUnits="userSpaceOnUse">
<stop offset="0.0682314" stop-color="#FF0606"/>
<stop offset="1" stop-color="#B60C0C"/>
</linearGradient>
</defs>
</svg>
