<svg width="298" height="69" viewBox="0 0 298 69" fill="none" xmlns="http://www.w3.org/2000/svg">
<path d="M95.536 39.104V34.4H103.12C104.944 34.4 106.432 34.016 107.584 33.248C108.768 32.48 109.632 31.456 110.176 30.176C110.72 28.864 110.992 27.424 110.992 25.856C110.992 23.776 110.432 22.32 109.312 21.488C108.224 20.624 106.768 20.192 104.944 20.192H95.536V15.44H105.04C108.592 15.44 111.408 16.32 113.488 18.08C115.6 19.808 116.656 22.384 116.656 25.808C116.656 27.472 116.384 29.104 115.84 30.704C115.328 32.304 114.512 33.744 113.392 35.024C112.304 36.272 110.912 37.264 109.216 38C107.52 38.736 105.504 39.104 103.168 39.104H95.536ZM92.368 50V15.44H97.936V50H92.368ZM131.546 50.576C127.706 50.576 124.81 49.904 122.858 48.56C120.906 47.216 119.93 45.12 119.93 42.272C119.93 40.416 120.394 38.88 121.322 37.664C122.25 36.448 123.562 35.536 125.258 34.928C126.954 34.32 128.938 34.016 131.21 34.016C132.842 34.016 134.218 34.16 135.338 34.448C136.458 34.704 137.45 34.96 138.314 35.216V39.008C137.546 38.752 136.57 38.528 135.386 38.336C134.234 38.112 133.146 38 132.122 38C129.754 38 127.978 38.32 126.794 38.96C125.642 39.568 125.066 40.672 125.066 42.272C125.066 43.776 125.626 44.864 126.746 45.536C127.866 46.176 129.482 46.496 131.594 46.496C132.81 46.496 133.978 46.4 135.098 46.208C136.218 45.984 137.258 45.664 138.218 45.248L137.306 46.832C137.21 46.512 137.13 46.176 137.066 45.824C137.002 45.472 136.938 45.12 136.874 44.768C136.842 44.384 136.81 43.968 136.778 43.52C136.778 43.072 136.778 42.56 136.778 41.984V34.208C136.778 32.352 136.506 30.96 135.962 30.032C135.45 29.072 134.666 28.448 133.61 28.16C132.554 27.84 131.226 27.68 129.626 27.68C128.346 27.68 127.066 27.84 125.786 28.16C124.506 28.448 123.482 28.768 122.714 29.12H122.282V24.608C123.434 24.16 124.714 23.824 126.122 23.6C127.562 23.376 128.954 23.264 130.298 23.264C131.994 23.264 133.546 23.408 134.954 23.696C136.394 23.984 137.642 24.528 138.698 25.328C139.786 26.096 140.618 27.2 141.194 28.64C141.802 30.048 142.106 31.904 142.106 34.208V40.4C142.106 41.04 142.106 41.872 142.106 42.896C142.138 43.92 142.186 44.928 142.25 45.92C142.314 46.88 142.41 47.648 142.538 48.224L142.394 48.608C141.338 48.992 140.17 49.344 138.89 49.664C137.61 49.952 136.33 50.176 135.05 50.336C133.77 50.496 132.602 50.576 131.546 50.576ZM150.446 50V33.392C150.446 32.752 150.43 31.92 150.398 30.896C150.398 29.872 150.366 28.88 150.302 27.92C150.27 26.928 150.19 26.144 150.062 25.568L150.158 25.184C151.022 24.864 152.062 24.592 153.278 24.368C154.494 24.112 155.742 23.92 157.022 23.792C158.302 23.632 159.454 23.552 160.478 23.552C161.182 23.552 161.806 23.568 162.35 23.6C162.926 23.632 163.438 23.696 163.886 23.792V28.304H163.502C163.054 28.208 162.526 28.144 161.918 28.112C161.342 28.08 160.798 28.064 160.286 28.064C159.294 28.064 158.27 28.144 157.214 28.304C156.158 28.464 155.246 28.64 154.478 28.832L155.438 27.488C155.694 28.448 155.822 29.824 155.822 31.616V50H150.446ZM167.512 44.192H167.896C169.048 44.704 170.376 45.136 171.88 45.488C173.384 45.808 174.872 45.968 176.344 45.968C176.856 45.968 177.448 45.952 178.12 45.92C178.824 45.856 179.528 45.728 180.232 45.536C180.936 45.312 181.512 44.96 181.96 44.48C182.44 43.968 182.68 43.28 182.68 42.416C182.68 41.36 182.248 40.624 181.384 40.208C180.552 39.76 179.336 39.408 177.736 39.152L175.48 38.768C172.824 38.32 170.824 37.552 169.48 36.464C168.136 35.344 167.464 33.744 167.464 31.664C167.464 30.192 167.864 28.832 168.664 27.584C169.464 26.336 170.728 25.344 172.456 24.608C174.184 23.84 176.488 23.456 179.368 23.456C180.648 23.456 181.88 23.552 183.064 23.744C184.248 23.936 185.272 24.176 186.136 24.464V29.072H185.752C184.632 28.656 183.56 28.352 182.536 28.16C181.512 27.968 180.392 27.872 179.176 27.872C177.128 27.872 175.528 28.144 174.376 28.688C173.224 29.232 172.648 30.16 172.648 31.472C172.648 32.464 173.064 33.184 173.896 33.632C174.76 34.048 175.96 34.384 177.496 34.64L179.752 35.024C181.256 35.248 182.616 35.648 183.832 36.224C185.048 36.8 186.024 37.584 186.76 38.576C187.496 39.568 187.864 40.816 187.864 42.32C187.864 44.976 186.888 46.992 184.936 48.368C183.016 49.712 180.072 50.384 176.104 50.384C174.504 50.384 172.968 50.256 171.496 50C170.024 49.744 168.696 49.424 167.512 49.04V44.192ZM206.62 50.432C204.22 50.432 202.092 50.144 200.236 49.568C198.412 48.992 196.876 48.144 195.628 47.024C194.38 45.872 193.436 44.448 192.796 42.752C192.188 41.056 191.884 39.088 191.884 36.848C191.884 34.064 192.396 31.664 193.42 29.648C194.444 27.6 195.884 26.032 197.74 24.944C199.596 23.824 201.788 23.264 204.316 23.264C207.164 23.264 209.468 23.856 211.228 25.04C212.988 26.192 214.252 27.824 215.02 29.936C215.82 32.016 216.156 34.432 216.028 37.184L215.98 38.624H195.484V34.688H210.604V34.304C210.604 32.096 210.076 30.432 209.02 29.312C207.964 28.16 206.38 27.584 204.268 27.584C203.02 27.584 201.868 27.856 200.812 28.4C199.756 28.944 198.908 29.872 198.268 31.184C197.66 32.464 197.356 34.208 197.356 36.416V37.04C197.356 39.312 197.756 41.104 198.556 42.416C199.388 43.696 200.524 44.608 201.964 45.152C203.436 45.696 205.1 45.968 206.956 45.968C208.556 45.968 209.932 45.824 211.084 45.536C212.268 45.216 213.196 44.864 213.868 44.48H214.3V49.04C213.468 49.424 212.412 49.744 211.132 50C209.884 50.288 208.38 50.432 206.62 50.432ZM220.997 32.72C220.997 29.136 221.685 26.016 223.061 23.36C224.437 20.672 226.453 18.592 229.109 17.12C231.765 15.616 235.013 14.864 238.853 14.864C240.485 14.864 241.941 15.008 243.221 15.296C244.501 15.552 245.589 15.904 246.485 16.352V21.44H246.053C245.157 20.896 244.101 20.496 242.885 20.24C241.669 19.952 240.357 19.808 238.949 19.808C236.421 19.808 234.229 20.288 232.373 21.248C230.549 22.208 229.141 23.648 228.149 25.568C227.189 27.488 226.709 29.872 226.709 32.72C226.709 35.568 227.189 37.952 228.149 39.872C229.141 41.792 230.549 43.232 232.373 44.192C234.229 45.152 236.421 45.632 238.949 45.632C240.357 45.632 241.669 45.504 242.885 45.248C244.101 44.96 245.157 44.544 246.053 44H246.485V49.088C245.589 49.536 244.501 49.888 243.221 50.144C241.941 50.432 240.485 50.576 238.853 50.576C235.013 50.576 231.765 49.872 229.109 48.464C226.453 47.024 224.437 44.976 223.061 42.32C221.685 39.632 220.997 36.432 220.997 32.72ZM263.452 50.576C259.612 50.576 256.716 49.904 254.764 48.56C252.812 47.216 251.836 45.12 251.836 42.272C251.836 40.416 252.3 38.88 253.228 37.664C254.156 36.448 255.468 35.536 257.164 34.928C258.86 34.32 260.844 34.016 263.116 34.016C264.748 34.016 266.124 34.16 267.244 34.448C268.364 34.704 269.356 34.96 270.22 35.216V39.008C269.452 38.752 268.476 38.528 267.292 38.336C266.14 38.112 265.052 38 264.028 38C261.66 38 259.884 38.32 258.7 38.96C257.548 39.568 256.972 40.672 256.972 42.272C256.972 43.776 257.532 44.864 258.652 45.536C259.772 46.176 261.388 46.496 263.5 46.496C264.716 46.496 265.884 46.4 267.004 46.208C268.124 45.984 269.164 45.664 270.124 45.248L269.212 46.832C269.116 46.512 269.036 46.176 268.972 45.824C268.908 45.472 268.844 45.12 268.78 44.768C268.748 44.384 268.716 43.968 268.684 43.52C268.684 43.072 268.684 42.56 268.684 41.984V34.208C268.684 32.352 268.412 30.96 267.868 30.032C267.356 29.072 266.572 28.448 265.516 28.16C264.46 27.84 263.132 27.68 261.532 27.68C260.252 27.68 258.972 27.84 257.692 28.16C256.412 28.448 255.388 28.768 254.62 29.12H254.188V24.608C255.34 24.16 256.62 23.824 258.028 23.6C259.468 23.376 260.86 23.264 262.204 23.264C263.9 23.264 265.452 23.408 266.86 23.696C268.3 23.984 269.548 24.528 270.604 25.328C271.692 26.096 272.524 27.2 273.1 28.64C273.708 30.048 274.012 31.904 274.012 34.208V40.4C274.012 41.04 274.012 41.872 274.012 42.896C274.044 43.92 274.092 44.928 274.156 45.92C274.22 46.88 274.316 47.648 274.444 48.224L274.3 48.608C273.244 48.992 272.076 49.344 270.796 49.664C269.516 49.952 268.236 50.176 266.956 50.336C265.676 50.496 264.508 50.576 263.452 50.576ZM292.017 50.384C289.777 50.384 287.937 50.032 286.497 49.328C285.057 48.624 283.985 47.616 283.281 46.304C282.577 44.96 282.225 43.328 282.225 41.408V16.88H287.601V40.928C287.601 42.688 287.985 43.952 288.753 44.72C289.553 45.488 290.801 45.872 292.497 45.872C293.137 45.872 293.761 45.808 294.369 45.68C295.009 45.52 295.553 45.344 296.001 45.152H296.433V49.568C295.889 49.792 295.249 49.984 294.513 50.144C293.777 50.304 292.945 50.384 292.017 50.384ZM278.145 28.352V23.84H294.945V28.352H278.145Z" fill="white"/>
<path d="M12.7112 17.4824L30.9294 43.7351L35.7403 9.38549L0 5.71199L12.7112 17.4824Z" fill="#EF4444"/>
<path d="M75.2888 17.4824L57.0706 43.7351L52.2597 9.38549L88 5.71199L75.2888 17.4824Z" fill="#EF4444"/>
<ellipse cx="44" cy="32" rx="30" ry="31" fill="#EF4444"/>
<path d="M37.3173 43.5556C28.6364 43.2593 24.8221 39.7284 24 38C24 41.8519 29.2611 46.2716 31.8917 48C37.3173 46.642 45.9981 43.8519 37.3173 43.5556Z" fill="#313131"/>
<path d="M51.6827 43.5556C60.3636 43.2593 64.1779 39.7284 65 38C65 41.8519 59.7389 46.2716 57.1083 48C51.6827 46.642 43.0019 43.8519 51.6827 43.5556Z" fill="#313131"/>
</svg>
